<!-- sample rectangle -->
<svg width="800px" height="800px" xmlns="http://www.w3.org/2000/svg">
  <polygon points="150,150 650,150 650,250 150,250" fill='white'/>
  <path d="M 151, 150 c -50 +10 -50 +90 0 +100" fill='white'/>
  <path d="M 649, 150 c +50 +10 +50 +90 0 +100" fill='white'/>
  <polygon points="150,350 650,350 650,450 150,450" fill='white'/>
  <path d="M 151, 350 c -50 +10 -50 +90 0 +100" fill='white'/>
  <path d="M 649, 350 c +50 +10 +50 +90 0 +100" fill='white'/>
  <polygon points="150,550 650,550 650,650 150,650" fill='white'/>
  <path d="M 151, 550 c -50 +10 -50 +90 0 +100" fill='white'/>
  <path d="M 649, 550 c +50 +10 +50 +90 0 +100" fill='white'/>
</svg>